#!OML:ASF X:\für Bonn\!DataBase\2005_08_11_Bastian_Final\c3d\Bastian.ASF
:FULLY-SPECIFIED
:DEGREES
46
root -0.25472 17.3344 23.9205 -910.154 -12.475 -896.315
lowerback 8.79661 -3.62531 -2.67905
upperback 5.85122 -5.57497 1.42142
thorax 1.55316 -3.13721 3.34684
lowerneck -18.2495 -5.5524 -3.57707
upperneck 13.114 -7.96734 8.60874
head 7.53969 -3.09396 2.47157
rclavicle -4.10987e-014 1.98785e-015
rhumerus -38.8035 -4.53605 -85.6055
rradius 26.0881
rwrist -1.57423
rhand -10.156 4.50454
rfingers 7.12502
rthumb 15.8334 -24.868
lclavicle -4.10987e-014 1.98785e-015
lhumerus -198.27 -199.755 263.796
lradius 13.4425
lwrist 3.6569
lhand -9.87087 -10.4353
lfingers 7.12502
lthumb 16.108 18.9153
rfemur -3.93611 -1.53394 26.4027
rtibia 34.4669
rfoot -15.767 -16.0247
rtoes 2.94592
lfemur 11.4935 4.22249 -14.5388
ltibia 18.0336
lfoot -14.1157 1.05975
ltoes -11.3365
47
root -0.254044 17.333 23.9029 -910.184 -12.6002 -896.316
lowerback 8.77321 -3.60254 -2.63543
upperback 5.86441 -5.5417 1.42442
thorax 1.57313 -3.12006 3.32119
lowerneck -18.2768 -5.61547 -3.50743
upperneck 13.0752 -8.0617 8.57493
head 7.53324 -3.13826 2.43674
rclavicle 3.90115e-014 -1.09332e-014
rhumerus -38.7982 -4.62095 -85.5333
rradius 26.2048
rwrist -1.56654
rhand -10.2332 4.44856
rfingers 7.12502
rthumb 15.7591 -24.9299
lclavicle 3.90115e-014 -1.09332e-014
lhumerus -198.264 -199.518 264.072
lradius 13.3812
lwrist 3.85199
lhand -9.98159 -10.2812
lfingers 7.12502
lthumb 16.0014 19.0779
rfemur -3.79363 -1.44211 26.4473
rtibia 34.3883
rfoot -15.7498 -16.2765
rtoes 2.73685
lfemur 11.5604 4.08988 -14.5612
ltibia 18.0592
lfoot -14.1744 1.10587
ltoes -11.629
48
root -0.250797 17.3313 23.8844 -910.246 -12.7347 -896.339
lowerback 8.77812 -3.58735 -2.65026
upperback 5.89607 -5.52683 1.43336
thorax 1.60472 -3.11603 3.33641
lowerneck -18.364 -5.663 -3.45905
upperneck 13.0978 -8.1328 8.53347
head 7.55609 -3.17028 2.40456
rclavicle -2.5345e-014 1.41137e-014
rhumerus -38.7525 -4.59919 -85.4928
rradius 26.2848
rwrist -1.55716
rhand -10.3472 4.35518
rfingers 7.12502
rthumb 15.6493 -25.0319
lclavicle -2.5345e-014 1.41137e-014
lhumerus -198.236 -199.538 264.271
lradius 13.2481
lwrist 3.81065
lhand -10.0745 -10.1857
lfingers 7.12502
lthumb 15.9119 19.1806
rfemur -3.60913 -1.3254 26.4847
rtibia 34.3146
rfoot -15.7715 -16.5406
rtoes 2.88955
lfemur 11.6736 3.98318 -14.5833
ltibia 18.0735
lfoot -14.2018 1.11279
ltoes -12.0375
49
root -0.247367 17.3302 23.8648 -910.288 -12.8621 -896.336
lowerback 8.75365 -3.56522 -2.63568
upperback 5.91515 -5.49765 1.44933
thorax 1.63598 -3.10283 3.34002
lowerneck -18.3721 -5.46948 -3.47693
upperneck 13.0011 -8.24108 8.5435
head 7.53238 -3.42515 2.37082
rclavicle 2.36926e-014 -4.57205e-015
rhumerus -38.7435 -4.61765 -85.4509
rradius 26.4067
rwrist -1.55125
rhand -10.4568 4.26238
rfingers 7.12502
rthumb 15.5438 -25.1329
lclavicle 2.36926e-014 -4.57205e-015
lhumerus -198.247 -199.443 264.459
lradius 13.1327
lwrist 3.85122
lhand -10.161 -10.1563
lfingers 7.12502
lthumb 15.8286 19.2167
rfemur -3.44914 -1.14424 26.5634
rtibia 34.2358
rfoot -15.8021 -16.8392
rtoes 3.17868
lfemur 11.762 3.93421 -14.5536
ltibia 18.083
lfoot -14.2274 1.064
ltoes -12.557
50
root -0.243858 17.3284 23.8424 -910.342 -12.9955 -896.335
lowerback 8.71379 -3.55274 -2.63305
upperback 5.95061 -5.48393 1.46561
thorax 1.69522 -3.09929 3.34928
lowerneck -18.4628 -5.51506 -3.39698
upperneck 13.0133 -8.30915 8.47506
head 7.54947 -3.4565 2.32497
rclavicle -4.97956e-014 1.45113e-014
rhumerus -38.7032 -4.51446 -85.4553
rradius 26.5275
rwrist -1.58878
rhand -10.5731 4.14298
rfingers 7.12502
rthumb 15.4317 -25.261
lclavicle -4.97956e-014 1.45113e-014
lhumerus -198.252 -199.17 264.675
lradius 13.0618
lwrist 4.07009
lhand -10.2646 -10.0724
lfingers 7.12502
lthumb 15.7289 19.3084
rfemur -3.26017 -0.955308 26.6471
rtibia 34.1616
rfoot -15.8607 -17.1512
rtoes 3.38957
lfemur 11.8738 3.90562 -14.5146
ltibia 18.0825
lfoot -14.2391 1.01117
ltoes -12.9588
51
root -0.238832 17.3273 23.8192 -910.394 -13.1261 -896.33
lowerback 8.65568 -3.5441 -2.65415
upperback 5.98871 -5.47718 1.49899
thorax 1.77187 -3.10085 3.38803
lowerneck -18.5279 -5.55113 -3.36637
upperneck 13.0201 -8.35681 8.43603
head 7.56253 -3.47867 2.29983
rclavicle -9.86469e-015 -4.87022e-015
rhumerus -38.6585 -4.40323 -85.4452
rradius 26.652
rwrist -1.64357
rhand -10.6811 4.01482
rfingers 7.12502
rthumb 15.3277 -25.3971
lclavicle -9.86469e-015 -4.87022e-015
lhumerus -198.261 -199.088 264.836
lradius 12.9431
lwrist 4.06433
lhand -10.349 -10.0756
lfingers 7.12502
lthumb 15.6475 19.3116
rfemur -3.07306 -0.77336 26.7409
rtibia 34.0771
rfoot -15.9079 -17.4596
rtoes 3.68602
lfemur 11.9787 3.87345 -14.4649
ltibia 18.0967
lfoot -14.2854 0.942261
ltoes -13.5575
52
root -0.233951 17.3262 23.7937 -910.435 -13.2593 -896.35
lowerback 8.5742 -3.53671 -2.70827
upperback 6.02619 -5.47299 1.53138
thorax 1.86401 -3.10463 3.44227
lowerneck -18.5821 -5.59147 -3.33745
upperneck 13.008 -8.40463 8.38297
head 7.56675 -3.50271 2.27067
rclavicle -1.82509e-014 9.14409e-015
rhumerus -38.6059 -4.23215 -85.4475
rradius 26.765
rwrist -1.73022
rhand -10.7698 3.86938
rfingers 7.12502
rthumb 15.2422 -25.5491
lclavicle -1.82509e-014 9.14409e-015
lhumerus -198.305 -199.008 264.977
lradius 12.8631
lwrist 4.03978
lhand -10.3433 -10.0836
lfingers 7.12502
lthumb 15.653 19.3031
rfemur -2.88439 -0.54114 26.8166
rtibia 33.9978
rfoot -15.9883 -17.7839
rtoes 4.21558
lfemur 12.0873 3.83496 -14.4446
ltibia 18.103
lfoot -14.3097 0.881445
ltoes -13.8815
53
root -0.228752 17.3237 23.7674 -910.5 -13.3914 -896.348
lowerback 8.51099 -3.53482 -2.75184
upperback 6.065 -5.47717 1.57685
thorax 1.94862 -3.1131 3.50608
lowerneck -18.6311 -5.61844 -3.2962
upperneck 13.0025 -8.42856 8.28863
head 7.56809 -3.51778 2.2293
rclavicle -2.06363e-014 1.19271e-014
rhumerus -38.5566 -4.03621 -85.44
rradius 26.8828
rwrist -1.80023
rhand -10.8566 3.78087
rfingers 7.12502
rthumb 15.1586 -25.6439
lclavicle -2.06363e-014 1.19271e-014
lhumerus -198.36 -198.973 265.102
lradius 12.7545
lwrist 3.95907
lhand -10.3576 -10.1347
lfingers 7.12502
lthumb 15.6393 19.2532
rfemur -2.67309 -0.394666 26.8977
rtibia 33.9193
rfoot -16.0776 -18.0375
rtoes 4.55353
lfemur 12.2241 3.824 -14.3852
ltibia 18.1067
lfoot -14.3467 0.803364
ltoes -14.5086
54
root -0.222747 17.3225 23.741 -910.534 -13.5229 -896.344
lowerback 8.40243 -3.53571 -2.7933
upperback 6.11782 -5.48467 1.61893
thorax 2.07258 -3.12426 3.56085
lowerneck -18.7306 -5.63531 -3.25371
upperneck 13.0032 -8.45133 8.24719
head 7.58271 -3.52688 2.20401
rclavicle 2.15806e-014 -9.0447e-015
rhumerus -38.4408 -3.90293 -85.4289
rradius 26.9414
rwrist -1.85296
rhand -10.9338 3.76079
rfingers 7.12502
rthumb 15.0843 -25.6696
lclavicle 2.15806e-014 -9.0447e-015
lhumerus -198.369 -198.77 265.232
lradius 12.6528
lwrist 4.01338
lhand -10.2979 -10.1775
lfingers 7.12502
lthumb 15.6968 19.2059
rfemur -2.50051 -0.245659 26.9835
rtibia 33.846
rfoot -16.1885 -18.2869
rtoes 5.20321
lfemur 12.3204 3.8307 -14.315
ltibia 18.1052
lfoot -14.3534 0.702158
ltoes -14.998
55
root -0.216829 17.3206 23.7134 -910.583 -13.657 -896.368
lowerback 8.30186 -3.52785 -2.83195
upperback 6.16713 -5.47863 1.63011
thorax 2.18385 -3.12701 3.58241
lowerneck -18.8081 -5.66892 -3.18261
upperneck 13.0281 -8.50561 8.19143
head 7.60155 -3.55128 2.16561
rclavicle -8.98258e-015 -4.96962e-016
rhumerus -38.3896 -3.74948 -85.4628
rradius 27.0678
rwrist -1.96054
rhand -11.0089 3.66708
rfingers 7.12502
rthumb 15.0119 -25.7687
lclavicle -8.98258e-015 -4.96962e-016
lhumerus -198.431 -198.634 265.27
lradius 12.5302
lwrist 3.85995
lhand -10.1988 -10.2982
lfingers 7.12502
lthumb 15.7922 19.0776
rfemur -2.29903 -0.166657 27.029
rtibia 33.7719
rfoot -16.2795 -18.4741
rtoes 5.53184
lfemur 12.4476 3.7377 -14.3113
ltibia 18.1172
lfoot -14.4177 0.689643
ltoes -15.5653
56
root -0.210237 17.3188 23.6857 -910.632 -13.7934 -896.391
lowerback 8.20508 -3.52759 -2.9143
upperback 6.21069 -5.4864 1.67711
thorax 2.29638 -3.13929 3.66641
lowerneck -18.8268 -5.67379 -3.09283
upperneck 12.9945 -8.50398 8.06455
head 7.58308 -3.55634 2.10998
rclavicle -6.62264e-014 4.47266e-015
rhumerus -38.3271 -3.47103 -85.4796
rradius 27.1733
rwrist -2.12312
rhand -11.0833 3.61502
rfingers 7.12502
rthumb 14.9403 -25.8261
lclavicle -6.62264e-014 4.47266e-015
lhumerus -198.492 -198.782 265.28
lradius 12.3566
lwrist 3.38243
lhand -10.0853 -10.4023
lfingers 7.12502
lthumb 15.9015 18.9648
rfemur -2.09879 -0.0304479 27.0866
rtibia 33.6979
rfoot -16.3892 -18.6933
rtoes 6.17393
lfemur 12.56 3.7196 -14.2835
ltibia 18.1351
lfoot -14.4418 0.646157
ltoes -16.4306
57
root -0.203667 17.3171 23.6579 -910.686 -13.9325 -896.384
lowerback 8.0979 -3.52702 -2.92347
upperback 6.26569 -5.49001 1.71083
thorax 2.41776 -3.14749 3.69454
lowerneck -18.9339 -5.698 -3.03572
upperneck 13.038 -8.53626 7.9839
head 7.61088 -3.57115 2.06791
rclavicle -8.08184e-014 2.46493e-014
rhumerus -38.1846 -3.35523 -85.4645
rradius 27.1595
rwrist -2.21989
rhand -11.1803 3.64724
rfingers 7.12502
rthumb 14.8468 -25.8008
lclavicle -8.08184e-014 2.46493e-014
lhumerus -198.561 -198.56 265.331
lradius 12.2536
lwrist 3.13777
lhand -10.0291 -10.4883
lfingers 7.12502
lthumb 15.9556 18.8745
rfemur -1.89604 0.0459412 27.1653
rtibia 33.6227
rfoot -16.5098 -18.8848
rtoes 6.7068
lfemur 12.6716 3.64121 -14.2362
ltibia 18.1644
lfoot -14.4926 0.616351
ltoes -16.8568
